Coordinates
version=1
nRows=16
nColumns=36
inDegrees=yes

Units are S.I. units (second, meters, Newtons, ...)
If the header above contains a line with 'inDegrees', this indicates whether rotational values are in degrees (yes) or radians (no).

endheader
time	pelvis_tilt	pelvis_list	pelvis_rotation	pelvis_tx	pelvis_ty	pelvis_tz	hip_flexion_r	hip_adduction_r	hip_rotation_r	knee_angle_r	knee_angle_r_beta	ankle_angle_r	subtalar_angle_r	mtp_angle_r	hip_flexion_l	hip_adduction_l	hip_rotation_l	knee_angle_l	knee_angle_l_beta	ankle_angle_l	subtalar_angle_l	mtp_angle_l	lumbar_extension	lumbar_bending	lumbar_rotation	arm_flex_r	arm_add_r	arm_rot_r	elbow_flex_r	pro_sup_r	arm_flex_l	arm_add_l	arm_rot_l	elbow_flex_l	pro_sup_l
      1.61250000	    -14.83905671	      0.81853658	     -2.58815334	     -0.96617264	      1.26440034	     -0.08689439	     20.12287523	     -1.41641638	      4.56785293	     13.61475119	      0.23762224	     10.66712196	    -14.40132482	     -7.49999987	     21.90909740	      0.37061213	      3.93782543	     17.96613848	      0.31356827	      8.93816807	     -9.58703719	     -7.49999987	    -10.79839228	     -1.09307679	     -4.58808867	      7.22044029	    -11.08396900	     11.49225631	     31.94851537	     76.10707675	     17.41031323	    -18.51255328	     38.01246761	     20.71321974	     60.20336517
      1.61666670	    -15.26293673	      0.92955314	     -2.79789911	     -0.96615393	      1.26398955	     -0.08647689	     20.87186223	     -1.34224014	      4.94266358	     14.04209562	      0.24508080	     10.56723602	    -14.72773216	     -7.49999987	     22.68556448	      0.35025553	      3.78387470	     18.44621491	      0.32194718	      8.86599631	     -9.94852793	     -7.49999987	    -10.55069296	     -1.20741641	     -4.58868730	      6.64788680	    -11.71967886	     12.31066285	     30.94134790	     77.65857688	     16.94482875	    -19.03147188	     42.14364007	     18.59906513	     58.36370792
      1.62083330	    -15.58096141	      1.03233117	     -2.93315380	     -0.96643910	      1.26054902	     -0.08629276	     21.54311612	     -1.29676945	      5.32093475	     14.59965404	      0.25481203	     10.74004985	    -15.10367331	     -7.49999987	     23.34708595	      0.35701167	      3.55572786	     18.93263943	      0.33043689	      8.90889802	    -10.14637107	     -7.49999987	    -10.61513832	     -1.32913814	     -4.58538609	      6.03429540	    -12.12506523	     11.82642435	     31.17379179	     76.67938419	     15.66355576	    -19.22241050	     41.96593994	     17.70074559	     58.05176241
      1.62500000	    -16.47671893	      1.19132664	     -2.98178345	     -0.97297420	      1.26036506	     -0.08163043	     23.06403274	     -1.16242265	      5.88322341	     15.41294378	      0.26900662	     10.82169484	    -15.89398308	     -7.49999987	     24.76181958	      0.36879439	      3.47184830	     19.51624783	      0.34062278	      8.86737729	    -10.35848906	     -7.49999987	     -9.97616025	     -1.53538763	     -3.86465737	      5.65575489	    -12.75274580	     12.06803981	     30.94766940	     77.01477575	     14.96751637	    -19.72138407	     41.67811474	     17.46703845	     57.43792913
      1.62916670	    -17.14835351	      1.35072767	     -2.95949217	     -0.97250514	      1.25989607	     -0.09055161	     24.31516497	     -1.31448105	      6.21512271	     16.29486922	      0.28439912	     10.74492801	    -16.71068047	     -7.49999987	     26.02734032	      0.61337187	      3.54066309	     20.15733026	      0.35181178	      8.78615653	    -10.64269236	     -7.49999987	     -9.66489009	     -1.43780193	     -3.95821153	      4.97617545	    -13.52619240	     11.41984364	     30.46542384	     76.35970267	     13.43724084	    -19.89296514	     40.55860040	     17.02116874	     56.74270484
      1.63333330	    -17.73725726	      1.56096756	     -3.16545387	     -0.97243489	      1.25583261	     -0.09016771	     25.52658384	     -1.38133625	      6.67597290	     17.13890242	      0.29913028	     10.70722575	    -17.60940704	     -7.49999987	     27.07955566	      0.76376587	      3.36106344	     20.77391546	      0.36257322	      8.85920464	    -11.05156933	     -7.49999987	     -9.42458948	     -1.59379361	     -3.78141602	      3.95182053	    -14.20275778	     10.68958983	     29.85446873	     75.11218500	     11.60197820	    -20.25649253	     39.78801381	     16.48556400	     56.38825675
      1.63750000	    -18.51179209	      1.63147076	     -3.21320620	     -0.97273627	      1.25213287	     -0.09014489	     26.75247691	     -1.37884276	      7.01736584	     17.85026483	      0.31154589	     10.79715761	    -18.13401108	     -7.49999987	     28.27350388	      0.80580597	      3.27140985	     21.28497144	      0.37149283	      8.90539544	    -11.39702736	     -7.49999987	     -8.83053108	     -1.50353404	     -3.57982658	      2.87236344	    -14.70810913	      9.86962165	     28.82151518	     74.44802547	      9.91747393	    -20.33119650	     39.01534336	     16.00729519	     56.03634006
      1.64166670	    -19.45285109	      1.65885707	     -3.13893097	     -0.97231034	      1.25491329	     -0.09001972	     27.96671201	     -1.42513391	      6.96104117	     18.36902854	      0.32060003	     10.96694405	    -18.22204752	     -7.49999987	     29.51973139	      0.83118995	      3.20304680	     21.61584131	      0.37726760	      9.02704508	    -11.57689317	     -7.49999987	     -8.06408146	     -1.20708577	     -3.50623351	      1.03253891	    -14.70866822	      9.34872800	     27.83723418	     74.59109929	      8.29295402	    -20.41320478	     37.95901495	     16.50473139	     55.45566684
      1.64583330	    -19.57919255	      1.57689149	     -2.92627530	     -0.97234913	      1.25933223	     -0.09035113	     28.12341330	     -1.41011609	      6.95448823	     18.58676486	      0.32440024	     10.93897646	    -18.32902012	     -7.49999987	     29.74316827	      0.87026387	      3.41134800	     21.66171470	      0.37806824	      8.86866614	    -11.46925640	     -7.49999987	     -8.57168787	     -1.01689236	     -3.44550418	     -0.22489185	    -14.70953535	      9.34869599	     27.19633859	     74.60249323	      7.54224877	    -20.53050676	     37.75443591	     16.41404442	     55.35783196
      1.65000000	    -20.19830131	      1.51805801	     -2.63100400	     -0.97196497	      1.25852033	     -0.09068206	     28.90182288	     -1.43904446	      6.78523055	     18.79788972	      0.32808507	     11.17106729	    -18.55201481	     -7.49999987	     30.69943378	      0.96428281	      3.51008557	     22.19837227	      0.38743468	      9.03939045	    -11.22205789	     -7.49999987	     -8.61432065	     -0.82689640	     -3.15645411	     -1.78057777	    -14.81293205	      9.27254283	     27.73961364	     73.64893439	      6.43736233	    -20.84227752	     37.35355463	     16.57713652	     55.53379890
      1.65416670	    -20.96752747	      1.33662479	     -2.40402379	     -0.97211946	      1.25382331	     -0.09076778	     29.94245577	     -1.30649700	      6.67780838	     19.21527468	      0.33536981	     10.79352234	    -18.99708986	     -7.49999987	     31.93523571	      0.88949296	      3.52678296	     23.02424113	      0.40184882	      9.13261051	    -11.14841549	     -7.49999987	     -8.15929790	     -0.49326888	     -3.65691175	     -1.87482484	    -14.52189904	      9.52312978	     24.49049006	     73.59218082	      4.02526235	    -20.19644083	     29.69017662	     15.92257096	     53.10625840
      1.65833330	    -21.33453615	      1.25027603	     -2.26974393	     -0.97181594	      1.25295238	     -0.09051562	     30.57290647	     -1.24757795	      6.47147667	     19.61611134	      0.34236573	     10.67802743	    -19.32135459	     -7.49999987	     32.57913319	      0.88470116	      3.53410600	     23.64626067	      0.41270510	      9.31978714	    -10.97967882	     -7.49999987	     -8.24746207	     -0.23660827	     -3.50678962	     -3.05059761	    -14.89769504	      9.19549674	     23.06105812	     72.64039699	      3.20130125	    -20.18314950	     28.91182247	     15.26971908	     53.47706625
      1.66250000	    -21.61003862	      1.02748384	     -2.06505821	     -0.97210698	      1.25304952	     -0.09087246	     30.99005656	     -1.08359918	      6.18959436	     19.81934603	      0.34591284	     10.69343969	    -19.48377802	     -7.49999987	     33.16748536	      0.76592012	      3.64027952	     24.21397797	      0.42261364	      9.50683069	    -10.96567184	     -7.49999987	     -8.43323705	      0.04693429	     -3.15339857	     -3.97704566	    -15.24935816	      8.86953328	     22.24172649	     72.10037260	      2.52922927	    -20.23232593	     27.95093051	     15.08590522	     53.39611272
      1.66666670	    -21.99575316	      0.84755727	     -1.88890314	     -0.97189949	      1.25232772	     -0.09080154	     31.52547095	     -0.95232243	      5.89445083	     20.07492790	      0.35037359	     10.73045048	    -19.61729415	     -7.49999987	     33.93046130	      0.65171886	      3.81802606	     24.82680441	      0.43330948	      9.69764642	    -10.93315223	     -7.49999987	     -8.28840784	      0.28189409	     -3.28341705	     -4.86842352	    -15.49570394	      8.70440149	     21.42376148	     70.48226525	      0.92728625	    -20.25484355	     22.78436681	     16.04884614	     52.90414076
      1.67083330	    -22.29708417	      0.65469261	     -1.74781617	     -0.97216763	      1.25238880	     -0.09121652	     31.88278596	     -0.80717210	      5.66436946	     20.13671564	      0.35145199	     10.62206080	    -19.80142543	     -7.49999987	     34.56111672	      0.50609665	      3.99573669	     25.38444892	      0.44304221	      9.74304738	    -11.04554470	     -7.49999987	     -8.37299268	      0.25524676	     -3.17273303	     -5.97471458	    -15.85571391	      8.31650276	     21.22520089	     69.36805446	     -0.15155142	    -20.61305992	     22.08994070	     15.63280416	     53.40870632
      1.67500000	    -22.91634637	      0.44707424	     -1.54187453	     -0.97804194	      1.25163090	     -0.08607965	     32.71475288	     -0.52576498	      5.47388120	     20.29069398	      0.35413942	     10.68752960	    -19.96248533	     -7.49999987	     35.66179401	      0.27018657	      4.11614874	     26.04572686	      0.45458369	      9.87057676	    -11.14763747	     -7.49999987	     -7.98818183	     -0.02297550	     -2.83432008	     -7.25258612	    -16.14301901	      8.23703841	     21.72626377	     69.27708069	     -1.19447773	    -21.55784322	     21.26550747	     16.03031184	     53.23394213
